<svg width="2479" height="2436" viewBox="0 0 2479 2436" fill="none" xmlns="http://www.w3.org/2000/svg">
<path d="M1982.35 42.021C1895.78 0.266461 1456.95 47.9588 1140.42 346.217C641.906 835.472 653.875 1479.79 653.875 1479.79C653.875 1479.79 637.451 1546.14 567.187 1449.95C413.489 1257.55 494.018 814.728 503.004 752.99C515.709 666.17 459.351 663.505 435.839 692.281C-119.418 1449.91 382.076 2070.37 710.505 2267.31C1094.9 2497.78 1853.36 2497.7 2155.53 1843.75C2531.68 1029.32 2090.77 94.2808 1982.35 42.021Z" fill="#2DD4BF"/>
<path d="M1973.71 760.603C2012.25 506.612 2012.48 261.946 1980.8 41.4881C1891.32 0.837379 1455.37 49.4051 1140.42 346.217C641.906 835.472 653.875 1479.79 653.875 1479.79C653.875 1479.79 637.452 1546.14 567.187 1449.95C413.489 1257.55 494.018 814.728 503.005 752.991C515.709 666.17 459.351 663.506 435.839 692.281C100.245 1150.17 150.87 1557.75 315.763 1852.24C480.81 2026.37 668.633 2140.83 842.589 2166.33C1338.39 2239.03 1844.72 1609.66 1973.71 760.603Z" fill="#0D9488"/>
<path d="M1973.71 760.603C2012.25 506.612 2012.48 261.946 1980.8 41.4881C1891.32 0.837316 1544.07 142.049 1229.08 438.937C730.569 928.154 653.875 1479.79 653.875 1479.79C653.875 1479.79 637.452 1546.14 567.188 1449.95C413.49 1257.55 466.323 925.147 475.348 863.448C488.092 776.589 431.695 773.963 408.183 802.738C72.6272 1260.63 150.909 1557.78 315.84 1852.24C480.888 2026.37 668.71 2140.83 842.667 2166.33C1338.39 2239.03 1844.72 1609.66 1973.71 760.603Z" fill="#5EEAD4"/>
</svg>
